<?xml version="1.0" encoding="UTF-8" standalone="no"?>
<!DOCTYPE svg PUBLIC "-//W3C//DTD SVG 1.1//EN" "http://www.w3.org/Graphics/SVG/1.1/DTD/svg11.dtd">
<svg width="100%" height="100%" viewBox="0 0 478 276" version="1.1" xmlns="http://www.w3.org/2000/svg" xmlns:xlink="http://www.w3.org/1999/xlink" xml:space="preserve" xmlns:serif="http://www.serif.com/" style="fill-rule:evenodd;clip-rule:evenodd;stroke-linecap:round;stroke-linejoin:round;stroke-miterlimit:1;">
    <g transform="matrix(1,0,0,1,-799.946,-1333.25)">
        <g transform="matrix(-4.16098e-17,-1.02985,0.858971,-3.00603e-17,-142.181,2506.43)">
            <path d="M1100.32,1314.88C1101.57,1319.85 1100.77,1325.24 1098.19,1329.41C1095.6,1333.58 1091.52,1336.04 1087.18,1336.04L923.326,1336.04C919.022,1336.04 914.972,1333.6 912.403,1329.46C909.833,1325.32 909.047,1319.97 910.283,1315.03L953.256,1143.13C954.95,1136.36 960.154,1131.71 966.057,1131.71L1044.2,1131.71C1050.33,1131.71 1055.74,1136.54 1057.5,1143.58L1100.32,1314.88Z" style="fill:rgb(29,29,29);fill-opacity:0;stroke:currentColor;stroke-width:35.15px;"/>
        </g>
        <g transform="matrix(-1,1.22465e-16,-1.22465e-16,-1,2077.37,2942.23)">
            <g transform="matrix(-4.16098e-17,-1.02985,0.858971,-3.00603e-17,-142.181,2506.43)">
                <path d="M1100.32,1314.88C1101.57,1319.85 1100.77,1325.24 1098.19,1329.41C1095.6,1333.58 1091.52,1336.04 1087.18,1336.04L923.326,1336.04C919.022,1336.04 914.972,1333.6 912.403,1329.46C909.833,1325.32 909.047,1319.97 910.283,1315.03L953.256,1143.13C954.95,1136.36 960.154,1131.71 966.057,1131.71L1044.2,1131.71C1050.33,1131.71 1055.74,1136.54 1057.5,1143.58L1100.32,1314.88Z" style="fill:rgb(29,29,29);fill-opacity:0;stroke:currentColor;stroke-width:35.15px;"/>
            </g>
        </g>
    </g>
</svg>
